<?xml version="1.0" encoding="utf-8" ?><svg xmlns="http://www.w3.org/2000/svg" xmlns:xlink="http://www.w3.org/1999/xlink" width="1024" height="1024" viewBox="0 0 1024 1024"><path fill="white" d="M0 0L1024 0L1024 1024L0 1024L0 0Z"/><path fill="#EA1A1E" d="M496.945 83.0285C734.016 74.6714 932.943 260.147 941.178 497.222C949.413 734.298 763.835 933.129 526.756 941.242C289.849 949.349 91.1939 763.935 82.9649 527.033C74.736 290.13 260.047 91.3796 496.945 83.0285Z"/><path fill="white" d="M493.819 116.037C712.527 105.956 897.993 275.092 908.055 493.8C918.116 712.509 748.964 897.96 530.254 908.002C311.572 918.044 126.15 748.917 116.089 530.236C106.028 311.554 275.139 126.117 493.819 116.037Z"/><path fill="#EA1A1E" d="M446.621 298.815C454.991 296.564 467.566 293.87 475.402 298.652C486.554 305.457 494.904 322.366 498.915 334.338L499.892 337.599C501.176 341.808 504.877 353.423 505.342 357.558C506.662 362.686 507.871 369.245 509.294 374.057C510.512 379.796 513.658 390.669 514.361 395.407L515.914 401.563C518.068 410.032 521.466 423.3 526.68 430.194C541.835 434.922 556.759 433.728 572.588 433.619C595.125 433.314 617.664 433.252 640.202 433.433C648.512 433.536 669.472 433.891 677.528 435.451C682.177 435.795 687.596 436.427 692.118 437.509C722.342 441.311 750.996 472.29 770.222 494.307C771.933 496.266 776.085 502.156 777.286 504.401C778.28 505.925 779.59 507.812 780.445 509.378C782.537 512.964 784.089 515.732 785.873 519.466L787.383 523.387C796.803 546.426 798.914 572.305 789.239 595.603C785.706 604.225 780.634 612.132 774.27 618.937C757.337 637.06 721.539 655.745 698.771 665.012C585.749 711.01 463.612 690.21 346.565 680.432C336.102 679.551 325.622 678.899 315.131 678.477C294.237 677.678 273.321 679.35 254.492 668.673C253.098 667.89 251.345 666.713 249.953 665.841C236.263 657.633 230.729 639.91 229.622 624.927C228.861 617.11 228.909 612.257 230.173 604.545C230.212 604.194 230.258 603.843 230.312 603.494C231.294 597.189 234.438 589.254 237.112 583.502C249.627 556.584 268.932 536.626 292.511 519.163C294.43 517.743 296.987 516.208 299.037 514.899C311.276 505.28 340.289 491.692 354.455 485.838C356.678 484.865 358.034 484.371 360.353 483.65C368.088 480.225 376.264 477.262 384.185 474.263C403.35 467.008 423.149 458.926 442.807 453.195L443.722 452.75C462.777 447.133 475.338 441.641 495.633 441.811L494.126 436.759C493.103 433.721 491.925 430.597 490.831 427.57C489.615 424.263 487.386 419.747 485.878 416.449L483.178 410.611C477.306 399.246 469.929 385.128 462.37 374.887L459.067 370.117C455.39 365.627 452.096 360.885 448.429 356.458C438.46 344.514 427.751 333.208 416.365 322.606C416.518 322.202 416.673 321.799 416.831 321.397C421.157 310.42 428.053 306.51 438.314 302.028C440.547 300.861 444.165 299.698 446.621 298.815Z"/><path fill="#CD1015" d="M689.713 439.084C684.753 439.665 670.954 439.759 665.549 439.787C643.852 439.9 622.033 439.65 600.316 439.609C590.465 439.563 580.614 439.601 570.763 439.723C564.566 439.801 541.112 440.225 536.113 438.81C539.497 436.38 565.353 437.682 571.062 437.716L625.359 437.829C634.027 437.95 642.696 437.939 651.364 437.797C658.763 437.626 664.867 437.115 672.367 437.274L671.802 438.072C673.405 439.09 686.613 438.927 689.713 439.084Z"/><path fill="#CD1015" d="M509.294 374.057C505.868 376.934 506.692 379.069 505.275 383.278L504.816 383.259C504.13 379.94 503.502 360.681 505.342 357.558C506.662 362.686 507.871 369.245 509.294 374.057Z"/><path fill="#BF1119" d="M677.528 435.451C682.177 435.795 687.596 436.427 692.118 437.509C690.675 439.011 691.501 438.593 689.713 439.084C686.613 438.927 673.405 439.09 671.802 438.072L672.367 437.274C675.056 437.316 677.285 437.136 679.946 436.938C679.422 436.46 675.499 435.846 674.587 435.692L677.528 435.451Z"/><path fill="#CD1015" d="M490.831 427.57C492.503 425.926 494.594 423.981 496.084 422.227C496.006 425.77 496.488 434.56 494.126 436.759C493.103 433.721 491.925 430.597 490.831 427.57Z"/><path fill="#BF1119" d="M354.455 485.838C356.678 484.865 358.034 484.371 360.353 483.65C362.358 485.991 365.122 485.186 368.084 486.932C366.862 488.162 356.74 487.862 354.455 485.838Z"/><path fill="#CD1015" d="M230.173 604.545C231.73 608.076 231.477 621.621 229.622 624.927C228.861 617.11 228.909 612.257 230.173 604.545Z"/><path fill="#CD1015" d="M299.037 514.899L298.314 516.693C300.033 516.978 302.695 517.184 303.992 518.165L304.074 519.01C302.699 520.312 294.506 519.873 292.511 519.163C294.43 517.743 296.987 516.208 299.037 514.899Z"/><path fill="#CD1015" d="M438.314 302.028C440.547 300.861 444.165 299.698 446.621 298.815C446.899 299.508 447.384 300.537 447.469 301.226L448.449 303.532C444.126 303.682 442.16 304.097 438.314 302.028Z"/><path fill="#CD1015" d="M785.873 519.466L787.383 523.387C785.212 528.098 786.59 531.428 785.474 535.025C783.966 532.111 783.748 522.135 785.873 519.466Z"/><path fill="#CD1015" d="M499.892 337.599C496.533 341.489 498.723 345.139 497.673 350.304C496.16 348.146 496.194 341.735 496.617 338.936C497.063 335.988 496.966 335.87 498.915 334.338L499.892 337.599Z"/><path fill="#CD1015" d="M514.361 395.407L515.914 401.563C513.904 403.746 514.174 404.311 514.001 407.403L512.486 407.956C512.428 403.684 511.687 398.515 514.361 395.407Z"/><path fill="#BF1119" d="M483.178 410.611C484.543 409.795 485.384 409.318 486.822 408.649C489.172 409.862 487.456 413.824 486.62 415.831L485.878 416.449L483.178 410.611Z"/><path fill="#BF1119" d="M442.807 453.195L443.722 452.75C449.161 454.842 453.72 453.278 456.489 454.475L456.235 455.063C453.085 455.853 444.589 456.513 442.807 453.195Z"/><path fill="#CD1015" d="M777.286 504.401C778.28 505.925 779.59 507.812 780.445 509.378C779.515 510.586 777.051 512.895 775.87 514.07C776.242 511.226 776.175 506.59 777.286 504.401Z"/><path fill="#BF1119" d="M459.067 370.117C460.685 368.803 462.322 368.393 464.292 367.683C463.855 369.731 463.295 373.154 462.37 374.887L459.067 370.117Z"/><path fill="#CD1015" d="M249.953 665.841C251.852 664.6 251.756 664.654 253.991 664.205C255.412 664.705 254.901 664.252 255.563 665.619C255.219 666.641 254.862 667.659 254.492 668.673C253.098 667.89 251.345 666.713 249.953 665.841Z"/><path fill="#CD1015" d="M447.469 301.226C450.073 301.557 453.675 301.668 455.89 302.44L455.33 302.805L455.258 302.272L454.98 302.227L454.594 302.98C452.308 303.311 450.76 303.427 448.449 303.532L447.469 301.226Z"/><path fill="#CD1015" d="M512.486 407.956L514.001 407.403C513.948 409.112 514.045 413.628 512.992 414.621C512.233 412.136 512.436 410.543 512.486 407.956Z"/><path fill="#BF1119" d="M735.573 640.628C737.574 640.395 740.327 640.965 742.203 641.794C739.01 642.222 738.091 642.457 735.573 640.628Z"/></svg>