<svg width="32" height="32" viewBox="0 0 32 32" fill="none" xmlns="http://www.w3.org/2000/svg"><path d="M25.4087 19.3478C28.2374 17.513 29.3333 13.887 27.5652 11.0435C25.7971 8.19999 22.2522 7.07826 19.4235 8.91304L19.0435 9.14782C18.2348 8.02608 17.0174 7.21739 15.6522 7.21739C13.2174 7.21739 11.2348 9.17391 11.2348 11.6087C11.2348 12.087 11.313 12.5391 11.4783 12.9652C7.96522 13.887 5.33913 17.1304 5.33913 21.1304C5.33913 22.4696 5.62609 23.7304 6.12174 24.8522H21.2348C21.7304 22.9913 23.1304 21.313 25.4087 19.3478Z" fill="#E53E3E"/><path d="M17.8087 7.07821C18.0174 6.09561 17.4783 5.14778 16.5217 4.91300C15.5652 4.67821 14.6174 5.21735 14.3826 6.17387L17.8087 7.07821Z" fill="#E53E3E"/></svg>